{"title":"The.Penny.Dreadful.Picture.Show.2013.UNRATED.HDRiP.XViD-FiRE","uid":9569159,"size":736028624,"categoryP":"video","categoryS":"movies","magnet":"?xt=urn:btih:fec6268df797a0a130c5e960e4bd58e84b8cdadc&amp;dn=The.Penny.Dreadful.Picture.Show.2013.UNRATED.HDRiP.XViD-FiRE&amp;tr=udp%3A%2F%2Ftracker.openbittorrent.com%3A80&amp;tr=udp%3A%2F%2Fopen.demonii.com%3A1337&amp;tr=udp%3A%2F%2Ftracker.coppersurfer.tk%3A6969&amp;tr=udp%3A%2F%2Fexodus.desync.com%3A6969","seeders":4,"leechers":2,"uploader":"Acesn8s","files":-1,"time":1391590648,"description":"\nThe.Penny.Dreadful.Picture.Show.2013.UNRATED.HDRiP.XViD-FiRE\n\n**********************************************************************************\n\nFormat                                   : AVI\nFormat/Info                              : Audio Video Interleave\nFile size                                : 699 MiB\nDuration                                 : 1h 42mn\nOverall bit rate                         : 955 Kbps\nWriting application                      : VirtualDubMod 1.5.10.2 \nWriting library                          : VirtualDubMod build 2542/release\n\n**********************************************************************************\n\nVideo\n\nID                                       : 0\nFormat                                   : MPEG-4 Visual\nFormat profile                           : Advanced Simple@L5\nFormat settings, BVOP                    : 2\nFormat settings, QPel                    : No\nFormat settings, GMC                     : No warppoints\nFormat settings, Matrix                  : Default (H.263)\nMuxing mode                              : Packed bitstream\nCodec ID                                 : XVID\nCodec ID/Hint                            : XviD\nDuration                                 : 1h 42mn\nBit rate                                 : 834 Kbps\nWidth                                    : 640 pixels\nHeight                                   : 352 pixels\nDisplay aspect ratio                     : 16:9\nFrame rate                               : 23.976 fps\nColor space                              : YUV\nChroma subsampling                       : 4:2:0\nBit depth                                : 8 bits\nScan type                                : Progressive\nCompression mode                         : Lossy\nBits/(Pixel*Frame)                       : 0.154\nStream size                              : 610 MiB (87%)\nWriting library                          : XviD 65\n\n**********************************************************************************\n\nAudio\n\nID                                       : 1\nFormat                                   : MPEG Audio\nFormat version                           : Version 1\nFormat profile                           : Layer 3\nMode                                     : Joint stereo\nMode extension                           : MS Stereo\nCodec ID                                 : 55\nCodec ID/Hint                            : MP3\nDuration                                 : 1h 42mn\nBit rate mode                            : Constant\nBit rate                                 : 112 Kbps\nChannel(s)                               : 2 channels\nSampling rate                            : 48.0 KHz\nCompression mode                         : Lossy\nStream size                              : 81.9 MiB (12%)\nAlignment                                : Aligned on interleaves\nInterleave, duration                     : 42 ms (1.00 video frame)\nInterleave, preload duration             : 504 ms\nWriting library                          : LAME3.97 \nEncoding settings                        : -m j -V 4 -q 2 -lowpass 17 -b 128\nSource                                   : WEB-DL \n\n**********************************************************************************\n\nGenre \n\nHorror \n\nActors\n\nEliza Swenson, Craig Blair, Theodore Bouloukos  |   \n\nPlot \n\nDaffy undead gal Penny Dreadful, her smitten zombie buddy Ned, and lycanthrope Wolfboy relate three tales of terror in an old rundown movie theater: A young couple find themselves being stalked by a lethal jack-in-the-box in &quot;Slash-in-the-Box;&quot; mousy young lady Alice tries to figure out what exactly \nhappened to her last night in &quot;The Morning After;&quot; and a group of friends encounter an eccentric backwoods family after their van breaks down in the middle of nowhere in &quot;The Slaughter House\n\n**********************************************************************************\n\nIMDb\n  &lt;a href=&quot;\nhttp://www.imdb.com/title/tt2317484/&quot; rel=&quot;nofollow&quot; target=&quot;_NEW&quot;&gt;\nhttp://www.imdb.com/title/tt2317484/&lt;/a&gt;\n\n**********************************************************************************\n\nScreens\n &lt;a href=&quot;\nhttp://img.acianetmedia.com/i/19Far.jpg&quot; rel=&quot;nofollow&quot; target=&quot;_NEW&quot;&gt;\nhttp://img.acianetmedia.com/i/19Far.jpg&lt;/a&gt;\n &lt;a href=&quot;\nhttp://img.acianetmedia.com/i/ih1Yo.jpg&quot; rel=&quot;nofollow&quot; target=&quot;_NEW&quot;&gt;\nhttp://img.acianetmedia.com/i/ih1Yo.jpg&lt;/a&gt;\n &lt;a href=&quot;\nhttp://img.acianetmedia.com/i/DMLJP.jpg&quot; rel=&quot;nofollow&quot; target=&quot;_NEW&quot;&gt;\nhttp://img.acianetmedia.com/i/DMLJP.jpg&lt;/a&gt;\n &lt;a href=&quot;\nhttp://img.acianetmedia.com/i/dHTYD.jpg&quot; rel=&quot;nofollow&quot; target=&quot;_NEW&quot;&gt;\nhttp://img.acianetmedia.com/i/dHTYD.jpg&lt;/a&gt;\n &lt;a href=&quot;\nhttp://img.acianetmedia.com/i/l6iV.jpg&quot; rel=&quot;nofollow&quot; target=&quot;_NEW&quot;&gt;\nhttp://img.acianetmedia.com/i/l6iV.jpg&lt;/a&gt;","torrent":{"xt":"urn:btih:fec6268df797a0a130c5e960e4bd58e84b8cdadc","amp;dn":"The.Penny.Dreadful.Picture.Show.2013.UNRATED.HDRiP.XViD-FiRE","amp;tr":["udp%3A%2F%2Ftracker.openbittorrent.com%3A80","udp%3A%2F%2Fopen.demonii.com%3A1337","udp%3A%2F%2Ftracker.coppersurfer.tk%3A6969","udp%3A%2F%2Fexodus.desync.com%3A6969"],"infoHash":"fec6268df797a0a130c5e960e4bd58e84b8cdadc","infoHashBuffer":{"type":"Buffer","data":[254,198,38,141,247,151,160,161,48,197,233,96,228,189,88,232,75,140,218,220]},"announce":[],"urlList":[]}}